<?xml version="1.0" encoding="UTF-8"?>
<svg width="873px" height="400px" viewBox="0 0 873 400" version="1.1" xmlns="http://www.w3.org/2000/svg" xmlns:xlink="http://www.w3.org/1999/xlink">
    <!-- Generator: Sketch 53.2 (72643) - https://sketchapp.com -->
    <title>Artboard</title>
    <desc>Created with Sketch.</desc>
    <g id="Artboard" stroke="none" stroke-width="1" fill="none" fill-rule="evenodd">
        <path d="M216.124,129 L216.124,36.726 L185.535,36.726 L185.535,15.094 L273.077,15.094 L273.077,36.726 L241.981,36.726 L241.981,129 L216.124,129 Z M278.073,129 L278.073,9.01 L303.761,9.01 L303.761,56.161 L304.099,56.161 C306.803,52.612 310.183,49.908 314.239,47.711 C317.957,45.683 322.858,44.5 327.59,44.5 C343.983,44.5 356.489,55.823 356.489,80.666 L356.489,129 L330.801,129 L330.801,83.539 C330.801,72.723 327.083,65.287 317.45,65.287 C310.69,65.287 306.465,69.681 304.606,74.244 C303.93,75.934 303.761,78.131 303.761,79.99 L303.761,129 L278.073,129 Z M444.295,95.876 L391.06,95.876 C391.905,106.523 402.383,111.593 414.382,111.593 C423.17,111.593 430.268,110.41 437.197,108.213 L440.577,125.62 C432.127,129 421.818,130.69 410.664,130.69 C382.61,130.69 366.555,114.466 366.555,88.609 C366.555,67.653 379.568,44.5 408.298,44.5 C435,44.5 445.14,65.287 445.14,85.736 C445.14,90.13 444.633,94.017 444.295,95.876 Z M390.891,78.3 L421.311,78.3 C421.311,72.047 418.607,61.569 406.777,61.569 C395.961,61.569 391.567,71.371 390.891,78.3 Z M194.154,242.493 L194.154,130.615 C200.914,129.263 214.603,128.249 227.447,128.249 C243.164,128.249 252.797,129.77 261.078,134.671 C269.021,138.896 274.767,146.67 274.767,156.979 C274.767,167.119 268.852,176.583 256.008,181.315 L256.008,181.653 C269.021,185.202 278.654,195.004 278.654,209.707 C278.654,220.016 273.922,228.128 266.824,233.874 C258.543,240.465 244.685,244.183 222.039,244.183 C209.364,244.183 199.9,243.338 194.154,242.493 Z M219.673,147.684 L219.673,174.217 L228.123,174.217 C241.643,174.217 248.91,168.64 248.91,160.19 C248.91,151.571 242.319,147.008 230.658,147.008 C225.081,147.008 221.87,147.346 219.673,147.684 Z M219.673,192.638 L219.673,224.748 C222.208,225.086 225.25,225.086 229.644,225.086 C241.305,225.086 251.614,220.692 251.614,208.693 C251.614,197.201 241.305,192.638 228.461,192.638 L219.673,192.638 Z M360.207,243 L337.054,243 L335.533,234.719 L335.026,234.719 C329.618,241.31 321.168,244.859 311.366,244.859 C294.635,244.859 284.664,232.691 284.664,219.509 C284.664,198.046 303.93,187.737 333.167,187.906 L333.167,186.723 C333.167,182.329 330.801,176.076 318.126,176.076 C309.676,176.076 300.719,178.949 295.311,182.329 L290.579,165.767 C296.325,162.556 307.648,158.5 322.689,158.5 C350.236,158.5 359.024,174.724 359.024,194.159 L359.024,222.889 C359.024,230.832 359.362,238.437 360.207,243 Z M334.012,212.918 L334.012,203.961 C320.492,203.792 310.014,207.003 310.014,216.974 C310.014,223.565 314.408,226.776 320.154,226.776 C326.576,226.776 331.815,222.551 333.505,217.312 C333.843,215.96 334.012,214.439 334.012,212.918 Z M432.465,222.044 L435.507,240.972 C430.944,243 422.325,244.69 412.523,244.69 C385.821,244.69 368.752,228.466 368.752,202.44 C368.752,178.273 385.314,158.5 416.072,158.5 C422.832,158.5 430.268,159.683 435.676,161.711 L431.62,180.808 C428.578,179.456 424.015,178.273 417.255,178.273 C403.735,178.273 394.947,187.906 395.116,201.426 C395.116,216.636 405.256,224.579 417.762,224.579 C423.846,224.579 428.578,223.565 432.465,222.044 Z M469.570999,123.01 L469.570999,195.173 L469.908999,195.173 C471.767999,191.793 473.795999,188.413 475.823999,185.202 L492.554999,160.359 L523.481999,160.359 L493.906999,193.821 L527.706999,243 L496.103999,243 L476.161999,209.031 L469.570999,217.143 L469.570999,243 L443.882999,243 L443.882999,123.01 L469.570999,123.01 Z M531.350999,276.462 L531.350999,188.075 C531.350999,177.259 531.012999,167.964 530.674999,160.359 L552.982999,160.359 L554.165999,171.851 L554.503999,171.851 C560.587999,163.063 570.051999,158.5 582.050999,158.5 C600.133999,158.5 616.357999,174.217 616.357999,200.581 C616.357999,230.663 597.260999,244.859 578.839999,244.859 C568.868999,244.859 561.094999,240.803 557.376999,235.395 L557.038999,235.395 L557.038999,276.462 L531.350999,276.462 Z M557.038999,196.187 L557.038999,207.51 C557.038999,209.538 557.207999,211.397 557.545999,212.918 C559.235999,219.847 565.150999,225.086 572.586999,225.086 C583.740999,225.086 590.331999,215.791 590.331999,201.764 C590.331999,188.582 584.416999,178.611 572.924999,178.611 C565.657999,178.611 559.235999,184.019 557.545999,191.624 C557.207999,192.976 557.038999,194.666 557.038999,196.187 Z M696.727999,243 L673.574999,243 L672.053999,234.719 L671.546999,234.719 C666.138999,241.31 657.688999,244.859 647.886999,244.859 C631.155999,244.859 621.184999,232.691 621.184999,219.509 C621.184999,198.046 640.450999,187.737 669.687999,187.906 L669.687999,186.723 C669.687999,182.329 667.321999,176.076 654.646999,176.076 C646.196999,176.076 637.239999,178.949 631.831999,182.329 L627.099999,165.767 C632.845999,162.556 644.168999,158.5 659.209999,158.5 C686.756999,158.5 695.544999,174.724 695.544999,194.159 L695.544999,222.889 C695.544999,230.832 695.882999,238.437 696.727999,243 Z M670.532999,212.918 L670.532999,203.961 C657.012999,203.792 646.534999,207.003 646.534999,216.974 C646.534999,223.565 650.928999,226.776 656.674999,226.776 C663.096999,226.776 668.335999,222.551 670.025999,217.312 C670.363999,215.96 670.532999,214.439 670.532999,212.918 Z M768.985999,222.044 L772.027999,240.972 C767.464999,243 758.845999,244.69 749.043999,244.69 C722.341999,244.69 705.272999,228.466 705.272999,202.44 C705.272999,178.273 721.834999,158.5 752.592999,158.5 C759.352999,158.5 766.788999,159.683 772.196999,161.711 L768.140999,180.808 C765.098999,179.456 760.535999,178.273 753.775999,178.273 C740.255999,178.273 731.467999,187.906 731.636999,201.426 C731.636999,216.636 741.776999,224.579 754.282999,224.579 C760.366999,224.579 765.098999,223.565 768.985999,222.044 Z M806.091999,123.01 L806.091999,195.173 L806.429999,195.173 C808.288999,191.793 810.316999,188.413 812.344999,185.202 L829.075999,160.359 L860.002999,160.359 L830.427999,193.821 L864.227999,243 L832.624999,243 L812.682999,209.031 L806.091999,217.143 L806.091999,243 L780.403999,243 L780.403999,123.01 L806.091999,123.01 Z M189.76,351.761 L194.999,330.467 C201.928,334.016 212.575,337.565 223.56,337.565 C235.39,337.565 241.643,332.664 241.643,325.228 C241.643,318.13 236.235,314.074 222.546,309.173 C203.618,302.582 191.281,292.104 191.281,275.542 C191.281,256.107 207.505,241.235 234.376,241.235 C247.22,241.235 256.684,243.939 263.444,246.981 L257.698,267.768 C253.135,265.571 245.023,262.36 233.869,262.36 C222.715,262.36 217.307,267.43 217.307,273.345 C217.307,280.612 223.729,283.823 238.432,289.4 C258.543,296.836 268.007,307.314 268.007,323.369 C268.007,342.466 253.304,358.69 222.039,358.69 C209.026,358.69 196.182,355.31 189.76,351.761 Z M278.073,357 L278.073,237.01 L303.761,237.01 L303.761,284.161 L304.099,284.161 C306.803,280.612 310.183,277.908 314.239,275.711 C317.957,273.683 322.858,272.5 327.59,272.5 C343.983,272.5 356.489,283.823 356.489,308.666 L356.489,357 L330.801,357 L330.801,311.539 C330.801,300.723 327.083,293.287 317.45,293.287 C310.69,293.287 306.465,297.681 304.606,302.244 C303.93,303.934 303.761,306.131 303.761,307.99 L303.761,357 L278.073,357 Z M410.664,272.5 C436.014,272.5 452.914,289.907 452.914,314.75 C452.914,345.001 431.451,358.859 409.312,358.859 C385.145,358.859 366.555,342.973 366.555,316.271 C366.555,289.569 384.131,272.5 410.664,272.5 Z M409.988,290.752 C397.651,290.752 393.088,303.427 393.088,315.595 C393.088,329.791 399.003,340.438 409.988,340.438 C419.959,340.438 426.381,330.467 426.381,315.595 C426.381,303.258 421.649,290.752 409.988,290.752 Z M462.979999,390.462 L462.979999,302.075 C462.979999,291.259 462.641999,281.964 462.303999,274.359 L484.611999,274.359 L485.794999,285.851 L486.132999,285.851 C492.216999,277.063 501.680999,272.5 513.679999,272.5 C531.762999,272.5 547.986999,288.217 547.986999,314.581 C547.986999,344.663 528.889999,358.859 510.468999,358.859 C500.497999,358.859 492.723999,354.803 489.005999,349.395 L488.667999,349.395 L488.667999,390.462 L462.979999,390.462 Z M488.667999,310.187 L488.667999,321.51 C488.667999,323.538 488.836999,325.397 489.174999,326.918 C490.864999,333.847 496.779999,339.086 504.215999,339.086 C515.369999,339.086 521.960999,329.791 521.960999,315.764 C521.960999,302.582 516.045999,292.611 504.553999,292.611 C497.286999,292.611 490.864999,298.019 489.174999,305.624 C488.836999,306.976 488.667999,308.666 488.667999,310.187 Z" id="TheBackpackShop" fill="#0B0B0B" fill-rule="nonzero"></path>
        <path d="M145,144 C185.143911,287.418958 197.179678,349.644505 181.107301,330.67664 C165.034925,311.708775 152.999158,302.225506 145,302.226831 L145,144 Z" id="Path-2" stroke="#880000" stroke-width="9"></path>
        <path d="M150,108.300297 C150,110.775662 150,114.98696 150,128.436811 C150,142.14334 150,211.577812 150,336.740225 C148.762502,350.246742 141.997301,357 129.704398,357 C117.411494,357 89.8131659,357 46.9094127,357 C33.3790111,356.853496 26.6138104,350.100238 26.6138104,336.740225 C26.6138104,323.380213 26.6138104,312.257559 26.6138104,303.372263 C18.1968815,303.372263 12.9449788,303.372263 10.858102,303.372263 C7.72778684,303.372263 6.42231289,252.826456 10.858102,246.97456 C13.8152947,243.073296 19.0671975,243.073296 26.6138104,246.97456 L26.6138104,173.304551 C27.0487292,152.95372 41.8030922,135.817087 70.8768993,121.894652 C114.48761,101.010999 150,105.824931 150,108.300297 Z" id="Path" fill="#B30000"></path>
        <g id="Group" transform="translate(8.000000, 258.000000)" stroke="#FFFFFF">
            <polyline id="Path-3" points="17.0240491 1.57677701 1.07133321 1.57677701 0.0240490526 1.57677701"></polyline>
            <path d="M2.12925565,2 L2.12925565,3.03304571" id="Path-4"></path>
            <path d="M4.12925565,1.57677701 L4.12925565,3.03304571" id="Path-4"></path>
            <path d="M6.12925565,1.57677701 L6.12925565,3.03304571" id="Path-4"></path>
            <path d="M8.12925565,1.57677701 L8.12925565,3.03304571" id="Path-4"></path>
            <path d="M10.1292557,1.57677701 L10.1292557,3.03304571" id="Path-4"></path>
            <path d="M12.1292557,1.57677701 L12.1292557,3.03304571" id="Path-4"></path>
            <path d="M14.1292557,1.57677701 L14.1292557,3.03304571" id="Path-4"></path>
            <path d="M16.1292557,1.57677701 L16.1292557,3.03304571" id="Path-4"></path>
            <path d="M15.1292557,0 L15.1292557,1.4562687" id="Path-4"></path>
            <path d="M13.1292557,0 L13.1292557,1.4562687" id="Path-4"></path>
            <path d="M11.1292557,0 L11.1292557,1.4562687" id="Path-4"></path>
            <path d="M9.12925565,0 L9.12925565,1.4562687" id="Path-4"></path>
            <path d="M7.12925565,0 L7.12925565,1.4562687" id="Path-4"></path>
            <path d="M5.12925565,0 L5.12925565,1.4562687" id="Path-4"></path>
            <path d="M3.12925565,0 L3.12925565,1.4562687" id="Path-4"></path>
            <path d="M1.12925565,0 L1.12925565,1.4562687" id="Path-4"></path>
        </g>
        <path d="M152,144 C130.348167,163.872587 108.381443,175.127038 86.0998276,177.763353 C63.8182124,180.399667 42.7849365,178.820862 23,173.026938" id="Path-5" stroke="#FFFFFF" stroke-width="2"></path>
        <path d="" id="Path-6" stroke="#979797"></path>
        <circle id="Oval" stroke="#FFFFFF" fill="#000000" cx="35" cy="167" r="3"></circle>
        <path d="M35,167.200513 C26.7269826,177.507321 22.8390381,186.219886 23.3361664,193.338207 C23.8332948,200.456527 24.7671346,199.422864 26.1376858,190.237216 C26.6942071,184.588138 25.5781469,182.516469 22.7895053,184.022209 C18.606543,186.28082 22.819242,194.842351 24.6925906,191.381415 C26.5659393,187.92048 18.5802986,165.609263 27.1891121,167.068469" id="Path-7" stroke="#3D3D3D"></path>
        <circle id="Oval" stroke="#880000" stroke-width="9" fill="#FFFFFF" cx="90" cy="260" r="23"></circle>
        <path d="M79.156,261 L79.156,254.994 L77.165,254.994 L77.165,253.586 L82.863,253.586 L82.863,254.994 L80.839,254.994 L80.839,261 L79.156,261 Z M84.557,261.121 C83.985,261.121 83.578,260.692 83.578,260.109 C83.578,259.515 83.985,259.086 84.568,259.086 C85.151,259.086 85.547,259.504 85.547,260.109 C85.547,260.692 85.151,261.121 84.557,261.121 Z M86.614,260.967 L86.614,253.685 C87.054,253.597 87.945,253.531 88.781,253.531 C89.804,253.531 90.431,253.63 90.97,253.949 C91.487,254.224 91.861,254.73 91.861,255.401 C91.861,256.061 91.476,256.677 90.64,256.985 L90.64,257.007 C91.487,257.238 92.114,257.876 92.114,258.833 C92.114,259.504 91.806,260.032 91.344,260.406 C90.805,260.835 89.903,261.077 88.429,261.077 C87.604,261.077 86.988,261.022 86.614,260.967 Z M88.275,254.796 L88.275,256.523 L88.825,256.523 C89.705,256.523 90.178,256.16 90.178,255.61 C90.178,255.049 89.749,254.752 88.99,254.752 C88.627,254.752 88.418,254.774 88.275,254.796 Z M88.275,257.722 L88.275,259.812 C88.44,259.834 88.638,259.834 88.924,259.834 C89.683,259.834 90.354,259.548 90.354,258.767 C90.354,258.019 89.683,257.722 88.847,257.722 L88.275,257.722 Z M94.061,261.121 C93.489,261.121 93.082,260.692 93.082,260.109 C93.082,259.515 93.489,259.086 94.072,259.086 C94.655,259.086 95.051,259.504 95.051,260.109 C95.051,260.692 94.655,261.121 94.061,261.121 Z M95.832,260.659 L96.173,259.273 C96.624,259.504 97.317,259.735 98.032,259.735 C98.802,259.735 99.209,259.416 99.209,258.932 C99.209,258.47 98.857,258.206 97.966,257.887 C96.734,257.458 95.931,256.776 95.931,255.698 C95.931,254.433 96.987,253.465 98.736,253.465 C99.572,253.465 100.188,253.641 100.628,253.839 L100.254,255.192 C99.957,255.049 99.429,254.84 98.703,254.84 C97.977,254.84 97.625,255.17 97.625,255.555 C97.625,256.028 98.043,256.237 99,256.6 C100.309,257.084 100.925,257.766 100.925,258.811 C100.925,260.054 99.968,261.11 97.933,261.11 C97.086,261.11 96.25,260.89 95.832,260.659 Z M102.861,261.121 C102.289,261.121 101.882,260.692 101.882,260.109 C101.882,259.515 102.289,259.086 102.872,259.086 C103.455,259.086 103.851,259.504 103.851,260.109 C103.851,260.692 103.455,261.121 102.861,261.121 Z" id="T.B.S." fill="#880000" fill-rule="nonzero"></path>
        <path d="M78.16,265.876 L78.284,265.372 C78.448,265.456 78.7,265.54 78.96,265.54 C79.24,265.54 79.388,265.424 79.388,265.248 C79.388,265.08 79.26,264.984 78.936,264.868 C78.488,264.712 78.196,264.464 78.196,264.072 C78.196,263.612 78.58,263.26 79.216,263.26 C79.52,263.26 79.744,263.324 79.904,263.396 L79.768,263.888 C79.66,263.836 79.468,263.76 79.204,263.76 C78.94,263.76 78.812,263.88 78.812,264.02 C78.812,264.192 78.964,264.268 79.312,264.4 C79.788,264.576 80.012,264.824 80.012,265.204 C80.012,265.656 79.664,266.04 78.924,266.04 C78.616,266.04 78.312,265.96 78.16,265.876 Z M81.612,266 L81.004,266 L81.004,264.044 L81.612,264.044 L81.612,266 Z M81.308,263.192 C81.504,263.192 81.628,263.324 81.632,263.5 C81.632,263.668 81.504,263.804 81.304,263.804 C81.112,263.804 80.984,263.668 80.988,263.5 C80.984,263.324 81.112,263.192 81.308,263.192 Z M82.7,266 L82.7,264.668 C82.7,264.424 82.692,264.216 82.684,264.044 L83.212,264.044 L83.24,264.312 L83.252,264.312 C83.332,264.188 83.532,264 83.856,264 C84.256,264 84.556,264.264 84.556,264.84 L84.556,266 L83.948,266 L83.948,264.916 C83.948,264.664 83.86,264.492 83.64,264.492 C83.472,264.492 83.372,264.608 83.332,264.72 C83.316,264.756 83.308,264.816 83.308,264.872 L83.308,266 L82.7,266 Z M87.0400001,265.504 L87.1120001,265.952 C87.0040001,266 86.8000001,266.04 86.5680001,266.04 C85.9360001,266.04 85.5320001,265.656 85.5320001,265.04 C85.5320001,264.468 85.9240001,264 86.6520001,264 C86.8120001,264 86.9880001,264.028 87.1160001,264.076 L87.0200001,264.528 C86.9480001,264.496 86.8400001,264.468 86.6800001,264.468 C86.3600001,264.468 86.1520001,264.696 86.1560001,265.016 C86.1560001,265.376 86.3960001,265.564 86.6920001,265.564 C86.8360001,265.564 86.9480001,265.54 87.0400001,265.504 Z M89.7320001,265.216 L88.4720001,265.216 C88.4920001,265.468 88.7400001,265.588 89.0240001,265.588 C89.2320001,265.588 89.4000001,265.56 89.5640001,265.508 L89.6440001,265.92 C89.4440001,266 89.2000001,266.04 88.9360001,266.04 C88.2720001,266.04 87.8920001,265.656 87.8920001,265.044 C87.8920001,264.548 88.2000001,264 88.8800001,264 C89.5120001,264 89.7520001,264.492 89.7520001,264.976 C89.7520001,265.08 89.7400001,265.172 89.7320001,265.216 Z M88.4680001,264.8 L89.1880001,264.8 C89.1880001,264.652 89.1240001,264.404 88.8440001,264.404 C88.5880001,264.404 88.4840001,264.636 88.4680001,264.8 Z M93.8920001,266 L92.0480001,266 L92.0480001,265.632 L92.3840001,265.328 C92.9520001,264.82 93.2280001,264.528 93.2360001,264.224 C93.2360001,264.012 93.1080001,263.844 92.8080001,263.844 C92.5840001,263.844 92.3880001,263.956 92.2520001,264.06 L92.0800001,263.624 C92.2760001,263.476 92.5800001,263.356 92.9320001,263.356 C93.5200001,263.356 93.8440001,263.7 93.8440001,264.172 C93.8440001,264.608 93.5280001,264.956 93.1520001,265.292 L92.9120001,265.492 L92.9120001,265.5 L93.8920001,265.5 L93.8920001,266 Z M95.8200002,263.356 C96.5160002,263.356 96.7880002,263.976 96.7880002,264.688 C96.7880002,265.492 96.4640002,266.044 95.8000002,266.044 C95.1280002,266.044 94.8320002,265.44 94.8280002,264.704 C94.8280002,263.952 95.1480002,263.356 95.8200002,263.356 Z M95.8120002,263.816 C95.5880002,263.816 95.4360002,264.1 95.4400002,264.704 C95.4360002,265.3 95.5800002,265.584 95.8160002,265.584 C96.0520002,265.584 96.1800002,265.288 96.1800002,264.696 C96.1800002,264.12 96.0560002,263.816 95.8120002,263.816 Z M98.4640002,266 L98.4640002,263.94 L98.4560002,263.94 L97.9600002,264.176 L97.8600002,263.72 L98.5480002,263.4 L99.0520002,263.4 L99.0520002,266 L98.4640002,266 Z M100.7,266.036 L100.7,265.56 C100.776,265.568 100.844,265.568 100.964,265.56 C101.148,265.548 101.336,265.496 101.476,265.4 C101.644,265.284 101.756,265.116 101.804,264.92 L101.792,264.916 C101.676,265.036 101.508,265.104 101.272,265.104 C100.832,265.104 100.46,264.796 100.46,264.292 C100.46,263.784 100.868,263.356 101.44,263.356 C102.108,263.356 102.424,263.868 102.424,264.476 C102.424,265.016 102.252,265.412 101.968,265.672 C101.72,265.896 101.38,266.02 100.976,266.036 C100.872,266.044 100.768,266.04 100.7,266.036 Z M101.424,263.8 C101.216,263.8 101.064,263.984 101.068,264.256 C101.068,264.48 101.188,264.672 101.436,264.672 C101.6,264.672 101.716,264.592 101.772,264.5 C101.792,264.464 101.804,264.424 101.804,264.348 C101.804,264.072 101.7,263.8 101.424,263.8 Z" id="Since2019" fill="#880000" fill-rule="nonzero"></path>
    </g>
</svg>